<mxfile host="app.diagrams.net" modified="2023-11-06T16:32:00.541Z" agent="Mozilla/5.0 (Macintosh; Intel Mac OS X 10_15_7) AppleWebKit/605.1.15 (KHTML, like Gecko) Version/15.4 Safari/605.1.15" etag="DVEY8dIjZ9NX7KFu5BK9" version="22.0.8" type="device">
  <diagram name="Seite-1" id="wTeeiL5ArBOCJapTolk2">
    <mxGraphModel dx="838" dy="1941" grid="1" gridSize="10" guides="1" tooltips="1" connect="1" arrows="1" fold="1" page="1" pageScale="1" pageWidth="827" pageHeight="1169" math="0" shadow="0">
      <root>
        <mxCell id="0" />
        <mxCell id="1" parent="0" />
        <mxCell id="BjeMGHfoCADPVK75deDM-1" value="BB1" style="whiteSpace=wrap;html=1;aspect=fixed;" vertex="1" parent="1">
          <mxGeometry x="460" y="71" width="80" height="80" as="geometry" />
        </mxCell>
        <mxCell id="BjeMGHfoCADPVK75deDM-2" value="" style="endArrow=none;dashed=1;html=1;dashPattern=1 3;strokeWidth=2;rounded=0;" edge="1" parent="1">
          <mxGeometry width="50" height="50" relative="1" as="geometry">
            <mxPoint x="400" y="630" as="sourcePoint" />
            <mxPoint x="400" as="targetPoint" />
          </mxGeometry>
        </mxCell>
        <mxCell id="BjeMGHfoCADPVK75deDM-4" value="Child-BB1" style="whiteSpace=wrap;html=1;aspect=fixed;" vertex="1" parent="1">
          <mxGeometry x="580" y="181" width="80" height="80" as="geometry" />
        </mxCell>
        <mxCell id="BjeMGHfoCADPVK75deDM-5" value="Child-BB2" style="whiteSpace=wrap;html=1;aspect=fixed;" vertex="1" parent="1">
          <mxGeometry x="580" y="431" width="80" height="80" as="geometry" />
        </mxCell>
        <mxCell id="BjeMGHfoCADPVK75deDM-6" value="Child-BB3" style="whiteSpace=wrap;html=1;aspect=fixed;" vertex="1" parent="1">
          <mxGeometry x="720" y="241" width="80" height="80" as="geometry" />
        </mxCell>
        <mxCell id="BjeMGHfoCADPVK75deDM-7" value="Child-BB4" style="whiteSpace=wrap;html=1;aspect=fixed;" vertex="1" parent="1">
          <mxGeometry x="720" y="341" width="80" height="80" as="geometry" />
        </mxCell>
        <mxCell id="BjeMGHfoCADPVK75deDM-8" value="" style="endArrow=classic;html=1;rounded=0;entryX=0;entryY=0.5;entryDx=0;entryDy=0;" edge="1" parent="1" target="BjeMGHfoCADPVK75deDM-4">
          <mxGeometry width="50" height="50" relative="1" as="geometry">
            <mxPoint x="510" y="151" as="sourcePoint" />
            <mxPoint x="440" y="321" as="targetPoint" />
            <Array as="points">
              <mxPoint x="510" y="221" />
            </Array>
          </mxGeometry>
        </mxCell>
        <mxCell id="BjeMGHfoCADPVK75deDM-9" value="" style="endArrow=classic;html=1;rounded=0;entryX=-0.025;entryY=0.413;entryDx=0;entryDy=0;entryPerimeter=0;exitX=0.4;exitY=1.013;exitDx=0;exitDy=0;exitPerimeter=0;" edge="1" parent="1" source="BjeMGHfoCADPVK75deDM-1" target="BjeMGHfoCADPVK75deDM-5">
          <mxGeometry width="50" height="50" relative="1" as="geometry">
            <mxPoint x="390" y="371" as="sourcePoint" />
            <mxPoint x="440" y="321" as="targetPoint" />
            <Array as="points">
              <mxPoint x="490" y="464" />
            </Array>
          </mxGeometry>
        </mxCell>
        <mxCell id="BjeMGHfoCADPVK75deDM-10" value="&lt;font style=&quot;font-size: 18px;&quot;&gt;Backing Beans&lt;/font&gt;" style="text;html=1;strokeColor=none;fillColor=none;align=center;verticalAlign=middle;whiteSpace=wrap;rounded=0;" vertex="1" parent="1">
          <mxGeometry x="570" y="20" width="130" height="30" as="geometry" />
        </mxCell>
        <mxCell id="BjeMGHfoCADPVK75deDM-11" value="" style="endArrow=classic;html=1;rounded=0;entryX=0;entryY=0.5;entryDx=0;entryDy=0;exitX=0.65;exitY=0.988;exitDx=0;exitDy=0;exitPerimeter=0;" edge="1" parent="1" source="BjeMGHfoCADPVK75deDM-4" target="BjeMGHfoCADPVK75deDM-6">
          <mxGeometry width="50" height="50" relative="1" as="geometry">
            <mxPoint x="390" y="371" as="sourcePoint" />
            <mxPoint x="440" y="321" as="targetPoint" />
            <Array as="points">
              <mxPoint x="632" y="281" />
            </Array>
          </mxGeometry>
        </mxCell>
        <mxCell id="BjeMGHfoCADPVK75deDM-12" value="" style="endArrow=classic;html=1;rounded=0;entryX=0;entryY=0.5;entryDx=0;entryDy=0;exitX=0.5;exitY=1;exitDx=0;exitDy=0;" edge="1" parent="1" source="BjeMGHfoCADPVK75deDM-4" target="BjeMGHfoCADPVK75deDM-7">
          <mxGeometry width="50" height="50" relative="1" as="geometry">
            <mxPoint x="390" y="371" as="sourcePoint" />
            <mxPoint x="440" y="321" as="targetPoint" />
            <Array as="points">
              <mxPoint x="620" y="381" />
            </Array>
          </mxGeometry>
        </mxCell>
        <mxCell id="BjeMGHfoCADPVK75deDM-13" value="&lt;font style=&quot;font-size: 18px;&quot;&gt;Fluent Api&lt;/font&gt;" style="text;html=1;strokeColor=none;fillColor=none;align=center;verticalAlign=middle;whiteSpace=wrap;rounded=0;" vertex="1" parent="1">
          <mxGeometry x="140" y="20" width="90" height="30" as="geometry" />
        </mxCell>
        <mxCell id="BjeMGHfoCADPVK75deDM-14" value="" style="endArrow=classic;html=1;rounded=0;dashed=1;" edge="1" parent="1">
          <mxGeometry width="50" height="50" relative="1" as="geometry">
            <mxPoint x="250" y="30" as="sourcePoint" />
            <mxPoint x="560" y="30" as="targetPoint" />
          </mxGeometry>
        </mxCell>
        <mxCell id="BjeMGHfoCADPVK75deDM-15" value="fills Backing Beans" style="edgeLabel;html=1;align=center;verticalAlign=middle;resizable=0;points=[];" vertex="1" connectable="0" parent="BjeMGHfoCADPVK75deDM-14">
          <mxGeometry x="-0.1419" y="4" relative="1" as="geometry">
            <mxPoint x="17" y="-6" as="offset" />
          </mxGeometry>
        </mxCell>
        <mxCell id="BjeMGHfoCADPVK75deDM-16" value="Fluent Interface 1" style="rounded=1;whiteSpace=wrap;html=1;" vertex="1" parent="1">
          <mxGeometry x="70" y="81" width="120" height="30" as="geometry" />
        </mxCell>
        <mxCell id="BjeMGHfoCADPVK75deDM-17" value="Fluent Interface 6" style="rounded=1;whiteSpace=wrap;html=1;" vertex="1" parent="1">
          <mxGeometry x="213" y="351" width="120" height="30" as="geometry" />
        </mxCell>
        <mxCell id="BjeMGHfoCADPVK75deDM-18" value="Fluent Interface 2" style="rounded=1;whiteSpace=wrap;html=1;" vertex="1" parent="1">
          <mxGeometry x="70" y="131" width="120" height="30" as="geometry" />
        </mxCell>
        <mxCell id="BjeMGHfoCADPVK75deDM-19" value="Fluent Interface 3" style="rounded=1;whiteSpace=wrap;html=1;" vertex="1" parent="1">
          <mxGeometry x="160" y="206" width="120" height="30" as="geometry" />
        </mxCell>
        <mxCell id="BjeMGHfoCADPVK75deDM-20" value="Fluent Interface 4" style="rounded=1;whiteSpace=wrap;html=1;" vertex="1" parent="1">
          <mxGeometry x="213" y="251" width="120" height="30" as="geometry" />
        </mxCell>
        <mxCell id="BjeMGHfoCADPVK75deDM-21" value="Fluent Interface 5" style="rounded=1;whiteSpace=wrap;html=1;" vertex="1" parent="1">
          <mxGeometry x="213" y="301" width="120" height="30" as="geometry" />
        </mxCell>
        <mxCell id="BjeMGHfoCADPVK75deDM-22" value="Fluent Interface 7" style="rounded=1;whiteSpace=wrap;html=1;" vertex="1" parent="1">
          <mxGeometry x="213" y="396" width="120" height="30" as="geometry" />
        </mxCell>
        <mxCell id="BjeMGHfoCADPVK75deDM-23" value="Fluent Interface 8" style="rounded=1;whiteSpace=wrap;html=1;" vertex="1" parent="1">
          <mxGeometry x="160" y="441" width="120" height="30" as="geometry" />
        </mxCell>
        <mxCell id="BjeMGHfoCADPVK75deDM-24" value="Fluent Interface 9" style="rounded=1;whiteSpace=wrap;html=1;" vertex="1" parent="1">
          <mxGeometry x="160" y="491" width="120" height="30" as="geometry" />
        </mxCell>
        <mxCell id="BjeMGHfoCADPVK75deDM-25" value="Fluent Interface 10" style="rounded=1;whiteSpace=wrap;html=1;" vertex="1" parent="1">
          <mxGeometry x="160" y="536" width="120" height="30" as="geometry" />
        </mxCell>
        <mxCell id="BjeMGHfoCADPVK75deDM-26" value="" style="endArrow=classic;html=1;rounded=0;entryX=0;entryY=0.75;entryDx=0;entryDy=0;exitX=1;exitY=0.5;exitDx=0;exitDy=0;dashed=1;" edge="1" parent="1" source="BjeMGHfoCADPVK75deDM-23" target="BjeMGHfoCADPVK75deDM-5">
          <mxGeometry width="50" height="50" relative="1" as="geometry">
            <mxPoint x="390" y="441" as="sourcePoint" />
            <mxPoint x="440" y="391" as="targetPoint" />
          </mxGeometry>
        </mxCell>
        <mxCell id="BjeMGHfoCADPVK75deDM-27" value="" style="endArrow=classic;html=1;rounded=0;exitX=1;exitY=0.5;exitDx=0;exitDy=0;dashed=1;entryX=-0.075;entryY=0.763;entryDx=0;entryDy=0;entryPerimeter=0;" edge="1" parent="1" source="BjeMGHfoCADPVK75deDM-24" target="BjeMGHfoCADPVK75deDM-5">
          <mxGeometry width="50" height="50" relative="1" as="geometry">
            <mxPoint x="290" y="466" as="sourcePoint" />
            <mxPoint x="580" y="501" as="targetPoint" />
          </mxGeometry>
        </mxCell>
        <mxCell id="BjeMGHfoCADPVK75deDM-28" value="" style="endArrow=classic;html=1;rounded=0;exitX=1;exitY=0.5;exitDx=0;exitDy=0;dashed=1;" edge="1" parent="1" source="BjeMGHfoCADPVK75deDM-25">
          <mxGeometry width="50" height="50" relative="1" as="geometry">
            <mxPoint x="300" y="476" as="sourcePoint" />
            <mxPoint x="580" y="491" as="targetPoint" />
            <Array as="points">
              <mxPoint x="280" y="561" />
            </Array>
          </mxGeometry>
        </mxCell>
        <mxCell id="BjeMGHfoCADPVK75deDM-29" value="" style="endArrow=classic;html=1;rounded=0;entryX=0;entryY=0.75;entryDx=0;entryDy=0;exitX=1;exitY=0.5;exitDx=0;exitDy=0;dashed=1;" edge="1" parent="1" source="BjeMGHfoCADPVK75deDM-22" target="BjeMGHfoCADPVK75deDM-7">
          <mxGeometry width="50" height="50" relative="1" as="geometry">
            <mxPoint x="310" y="486" as="sourcePoint" />
            <mxPoint x="610" y="521" as="targetPoint" />
          </mxGeometry>
        </mxCell>
        <mxCell id="BjeMGHfoCADPVK75deDM-30" value="" style="endArrow=classic;html=1;rounded=0;exitX=1;exitY=0.5;exitDx=0;exitDy=0;dashed=1;" edge="1" parent="1" source="BjeMGHfoCADPVK75deDM-17">
          <mxGeometry width="50" height="50" relative="1" as="geometry">
            <mxPoint x="320" y="496" as="sourcePoint" />
            <mxPoint x="710" y="401" as="targetPoint" />
          </mxGeometry>
        </mxCell>
        <mxCell id="BjeMGHfoCADPVK75deDM-31" value="" style="endArrow=classic;html=1;rounded=0;entryX=0;entryY=0.75;entryDx=0;entryDy=0;exitX=1;exitY=0.5;exitDx=0;exitDy=0;dashed=1;" edge="1" parent="1" source="BjeMGHfoCADPVK75deDM-21" target="BjeMGHfoCADPVK75deDM-6">
          <mxGeometry width="50" height="50" relative="1" as="geometry">
            <mxPoint x="330" y="506" as="sourcePoint" />
            <mxPoint x="630" y="541" as="targetPoint" />
          </mxGeometry>
        </mxCell>
        <mxCell id="BjeMGHfoCADPVK75deDM-32" value="" style="endArrow=classic;html=1;rounded=0;entryX=0;entryY=0.75;entryDx=0;entryDy=0;exitX=1;exitY=0.5;exitDx=0;exitDy=0;dashed=1;" edge="1" parent="1" source="BjeMGHfoCADPVK75deDM-20" target="BjeMGHfoCADPVK75deDM-6">
          <mxGeometry width="50" height="50" relative="1" as="geometry">
            <mxPoint x="340" y="516" as="sourcePoint" />
            <mxPoint x="640" y="551" as="targetPoint" />
          </mxGeometry>
        </mxCell>
        <mxCell id="BjeMGHfoCADPVK75deDM-33" value="" style="endArrow=classic;html=1;rounded=0;entryX=0;entryY=0.75;entryDx=0;entryDy=0;exitX=1;exitY=0.5;exitDx=0;exitDy=0;dashed=1;" edge="1" parent="1" source="BjeMGHfoCADPVK75deDM-19" target="BjeMGHfoCADPVK75deDM-4">
          <mxGeometry width="50" height="50" relative="1" as="geometry">
            <mxPoint x="350" y="526" as="sourcePoint" />
            <mxPoint x="650" y="561" as="targetPoint" />
          </mxGeometry>
        </mxCell>
        <mxCell id="BjeMGHfoCADPVK75deDM-34" value="" style="endArrow=classic;html=1;rounded=0;entryX=0;entryY=0.5;entryDx=0;entryDy=0;dashed=1;" edge="1" parent="1" target="BjeMGHfoCADPVK75deDM-1">
          <mxGeometry width="50" height="50" relative="1" as="geometry">
            <mxPoint x="190" y="94" as="sourcePoint" />
            <mxPoint x="460" y="128.5" as="targetPoint" />
          </mxGeometry>
        </mxCell>
        <mxCell id="BjeMGHfoCADPVK75deDM-35" value="" style="endArrow=classic;html=1;rounded=0;entryX=0;entryY=0.5;entryDx=0;entryDy=0;exitX=1;exitY=0.5;exitDx=0;exitDy=0;dashed=1;" edge="1" parent="1" source="BjeMGHfoCADPVK75deDM-18" target="BjeMGHfoCADPVK75deDM-1">
          <mxGeometry width="50" height="50" relative="1" as="geometry">
            <mxPoint x="370" y="546" as="sourcePoint" />
            <mxPoint x="670" y="581" as="targetPoint" />
          </mxGeometry>
        </mxCell>
        <mxCell id="BjeMGHfoCADPVK75deDM-36" value="" style="endArrow=classic;html=1;rounded=0;exitX=0.5;exitY=1;exitDx=0;exitDy=0;entryX=0.5;entryY=0;entryDx=0;entryDy=0;" edge="1" parent="1" source="BjeMGHfoCADPVK75deDM-16" target="BjeMGHfoCADPVK75deDM-18">
          <mxGeometry width="50" height="50" relative="1" as="geometry">
            <mxPoint x="390" y="441" as="sourcePoint" />
            <mxPoint x="440" y="391" as="targetPoint" />
          </mxGeometry>
        </mxCell>
        <mxCell id="BjeMGHfoCADPVK75deDM-37" value="" style="endArrow=classic;html=1;rounded=0;exitX=0.5;exitY=1;exitDx=0;exitDy=0;entryX=0;entryY=0.5;entryDx=0;entryDy=0;startArrow=classic;startFill=1;" edge="1" parent="1" source="BjeMGHfoCADPVK75deDM-18" target="BjeMGHfoCADPVK75deDM-19">
          <mxGeometry width="50" height="50" relative="1" as="geometry">
            <mxPoint x="390" y="441" as="sourcePoint" />
            <mxPoint x="440" y="391" as="targetPoint" />
            <Array as="points">
              <mxPoint x="130" y="221" />
            </Array>
          </mxGeometry>
        </mxCell>
        <mxCell id="BjeMGHfoCADPVK75deDM-38" value="" style="endArrow=none;html=1;rounded=0;exitX=0.5;exitY=0;exitDx=0;exitDy=0;entryX=0.5;entryY=1;entryDx=0;entryDy=0;startArrow=classic;startFill=1;endFill=0;" edge="1" parent="1" source="BjeMGHfoCADPVK75deDM-21" target="BjeMGHfoCADPVK75deDM-20">
          <mxGeometry width="50" height="50" relative="1" as="geometry">
            <mxPoint x="153" y="121" as="sourcePoint" />
            <mxPoint x="153" y="141" as="targetPoint" />
          </mxGeometry>
        </mxCell>
        <mxCell id="BjeMGHfoCADPVK75deDM-39" value="" style="endArrow=classic;html=1;rounded=0;entryX=0;entryY=0.5;entryDx=0;entryDy=0;" edge="1" parent="1">
          <mxGeometry width="50" height="50" relative="1" as="geometry">
            <mxPoint x="200" y="236" as="sourcePoint" />
            <mxPoint x="213" y="266" as="targetPoint" />
            <Array as="points">
              <mxPoint x="200" y="266" />
            </Array>
          </mxGeometry>
        </mxCell>
        <mxCell id="BjeMGHfoCADPVK75deDM-40" value="" style="endArrow=classic;html=1;rounded=0;exitX=0;exitY=0.5;exitDx=0;exitDy=0;" edge="1" parent="1" source="BjeMGHfoCADPVK75deDM-21">
          <mxGeometry width="50" height="50" relative="1" as="geometry">
            <mxPoint x="390" y="441" as="sourcePoint" />
            <mxPoint x="190" y="240" as="targetPoint" />
            <Array as="points">
              <mxPoint x="190" y="316" />
            </Array>
          </mxGeometry>
        </mxCell>
        <mxCell id="BjeMGHfoCADPVK75deDM-41" value="" style="endArrow=classic;startArrow=classic;html=1;rounded=0;exitX=0;exitY=0.25;exitDx=0;exitDy=0;entryX=0.2;entryY=1.033;entryDx=0;entryDy=0;entryPerimeter=0;" edge="1" parent="1" source="BjeMGHfoCADPVK75deDM-23" target="BjeMGHfoCADPVK75deDM-18">
          <mxGeometry width="50" height="50" relative="1" as="geometry">
            <mxPoint x="380" y="431" as="sourcePoint" />
            <mxPoint x="430" y="381" as="targetPoint" />
            <Array as="points">
              <mxPoint x="94" y="449" />
            </Array>
          </mxGeometry>
        </mxCell>
        <mxCell id="BjeMGHfoCADPVK75deDM-42" value="" style="endArrow=classic;html=1;rounded=0;exitX=0.5;exitY=1;exitDx=0;exitDy=0;entryX=0.5;entryY=0;entryDx=0;entryDy=0;" edge="1" parent="1" source="BjeMGHfoCADPVK75deDM-23" target="BjeMGHfoCADPVK75deDM-24">
          <mxGeometry width="50" height="50" relative="1" as="geometry">
            <mxPoint x="380" y="431" as="sourcePoint" />
            <mxPoint x="430" y="381" as="targetPoint" />
          </mxGeometry>
        </mxCell>
        <mxCell id="BjeMGHfoCADPVK75deDM-43" value="" style="endArrow=classic;html=1;rounded=0;entryX=0.5;entryY=0;entryDx=0;entryDy=0;exitX=0.5;exitY=1;exitDx=0;exitDy=0;" edge="1" parent="1" source="BjeMGHfoCADPVK75deDM-24" target="BjeMGHfoCADPVK75deDM-25">
          <mxGeometry width="50" height="50" relative="1" as="geometry">
            <mxPoint x="380" y="431" as="sourcePoint" />
            <mxPoint x="430" y="381" as="targetPoint" />
          </mxGeometry>
        </mxCell>
        <mxCell id="BjeMGHfoCADPVK75deDM-44" value="" style="endArrow=classic;html=1;rounded=0;exitX=0;exitY=0.5;exitDx=0;exitDy=0;entryX=0;entryY=0.75;entryDx=0;entryDy=0;" edge="1" parent="1" source="BjeMGHfoCADPVK75deDM-25" target="BjeMGHfoCADPVK75deDM-23">
          <mxGeometry width="50" height="50" relative="1" as="geometry">
            <mxPoint x="380" y="431" as="sourcePoint" />
            <mxPoint x="430" y="381" as="targetPoint" />
            <Array as="points">
              <mxPoint x="130" y="551" />
              <mxPoint x="130" y="464" />
            </Array>
          </mxGeometry>
        </mxCell>
        <mxCell id="BjeMGHfoCADPVK75deDM-45" value="" style="endArrow=none;dashed=1;html=1;rounded=0;" edge="1" parent="1">
          <mxGeometry width="50" height="50" relative="1" as="geometry">
            <mxPoint x="20" y="581" as="sourcePoint" />
            <mxPoint x="800" y="581" as="targetPoint" />
          </mxGeometry>
        </mxCell>
        <mxCell id="BjeMGHfoCADPVK75deDM-47" value="Commands" style="text;strokeColor=none;fillColor=none;align=left;verticalAlign=middle;spacingLeft=4;spacingRight=4;overflow=hidden;points=[[0,0.5],[1,0.5]];portConstraint=eastwest;rotatable=0;whiteSpace=wrap;html=1;fontSize=18;" vertex="1" parent="1">
          <mxGeometry x="122.5" y="581" width="125" height="30" as="geometry" />
        </mxCell>
        <mxCell id="BjeMGHfoCADPVK75deDM-48" value="Command 1" style="ellipse;whiteSpace=wrap;html=1;" vertex="1" parent="1">
          <mxGeometry x="85" y="621" width="90" height="40" as="geometry" />
        </mxCell>
        <mxCell id="BjeMGHfoCADPVK75deDM-49" value="Command 2" style="ellipse;whiteSpace=wrap;html=1;" vertex="1" parent="1">
          <mxGeometry x="85" y="681" width="90" height="40" as="geometry" />
        </mxCell>
        <mxCell id="BjeMGHfoCADPVK75deDM-50" value="" style="endArrow=classic;html=1;rounded=0;entryX=0;entryY=0.5;entryDx=0;entryDy=0;exitX=0;exitY=0.25;exitDx=0;exitDy=0;dashed=1;dashPattern=1 4;" edge="1" parent="1" source="BjeMGHfoCADPVK75deDM-18" target="BjeMGHfoCADPVK75deDM-49">
          <mxGeometry width="50" height="50" relative="1" as="geometry">
            <mxPoint x="370" y="501" as="sourcePoint" />
            <mxPoint x="420" y="451" as="targetPoint" />
            <Array as="points">
              <mxPoint x="20" y="139" />
              <mxPoint x="20" y="701" />
            </Array>
          </mxGeometry>
        </mxCell>
        <mxCell id="BjeMGHfoCADPVK75deDM-51" value="" style="endArrow=classic;html=1;rounded=0;entryX=0;entryY=0.5;entryDx=0;entryDy=0;exitX=0;exitY=0.75;exitDx=0;exitDy=0;dashed=1;dashPattern=1 4;" edge="1" parent="1" source="BjeMGHfoCADPVK75deDM-18" target="BjeMGHfoCADPVK75deDM-48">
          <mxGeometry width="50" height="50" relative="1" as="geometry">
            <mxPoint x="70" y="491" as="sourcePoint" />
            <mxPoint x="120" y="441" as="targetPoint" />
            <Array as="points">
              <mxPoint x="40" y="154" />
              <mxPoint x="40" y="641" />
            </Array>
          </mxGeometry>
        </mxCell>
        <mxCell id="BjeMGHfoCADPVK75deDM-52" value="Called&amp;nbsp;&lt;br&gt;by&lt;br&gt;Fluent API" style="text;html=1;strokeColor=none;fillColor=none;align=center;verticalAlign=middle;whiteSpace=wrap;rounded=0;" vertex="1" parent="1">
          <mxGeometry x="25" y="651" width="60" height="30" as="geometry" />
        </mxCell>
        <mxCell id="BjeMGHfoCADPVK75deDM-55" value="&lt;font style=&quot;font-size: 18px;&quot;&gt;BB1 instance is passed over at command&amp;nbsp;invocation&lt;/font&gt;" style="text;strokeColor=none;fillColor=none;align=left;verticalAlign=middle;spacingLeft=4;spacingRight=4;overflow=hidden;points=[[0,0.5],[1,0.5]];portConstraint=eastwest;rotatable=0;whiteSpace=wrap;html=1;" vertex="1" parent="1">
          <mxGeometry x="200" y="621" width="330" height="100" as="geometry" />
        </mxCell>
        <mxCell id="BjeMGHfoCADPVK75deDM-56" value="" style="endArrow=classic;html=1;rounded=0;exitX=0.15;exitY=1.067;exitDx=0;exitDy=0;exitPerimeter=0;entryX=0;entryY=0.5;entryDx=0;entryDy=0;" edge="1" parent="1" source="BjeMGHfoCADPVK75deDM-19" target="BjeMGHfoCADPVK75deDM-17">
          <mxGeometry width="50" height="50" relative="1" as="geometry">
            <mxPoint x="360" y="310" as="sourcePoint" />
            <mxPoint x="410" y="260" as="targetPoint" />
            <Array as="points">
              <mxPoint x="178" y="366" />
            </Array>
          </mxGeometry>
        </mxCell>
        <mxCell id="BjeMGHfoCADPVK75deDM-57" value="" style="endArrow=classic;html=1;rounded=0;entryX=0.5;entryY=0;entryDx=0;entryDy=0;exitX=0.5;exitY=1;exitDx=0;exitDy=0;" edge="1" parent="1" source="BjeMGHfoCADPVK75deDM-17" target="BjeMGHfoCADPVK75deDM-22">
          <mxGeometry width="50" height="50" relative="1" as="geometry">
            <mxPoint x="373" y="310" as="sourcePoint" />
            <mxPoint x="423" y="260" as="targetPoint" />
          </mxGeometry>
        </mxCell>
        <mxCell id="BjeMGHfoCADPVK75deDM-59" value="" style="endArrow=classic;html=1;rounded=0;exitX=0;exitY=0.5;exitDx=0;exitDy=0;entryX=0.067;entryY=1.067;entryDx=0;entryDy=0;entryPerimeter=0;" edge="1" parent="1" source="BjeMGHfoCADPVK75deDM-22" target="BjeMGHfoCADPVK75deDM-19">
          <mxGeometry width="50" height="50" relative="1" as="geometry">
            <mxPoint x="360" y="310" as="sourcePoint" />
            <mxPoint x="410" y="260" as="targetPoint" />
            <Array as="points">
              <mxPoint x="167" y="410" />
            </Array>
          </mxGeometry>
        </mxCell>
        <mxCell id="BjeMGHfoCADPVK75deDM-60" value="Fluent API method parameters &lt;br&gt;and implicit values&amp;nbsp;are mapped to backing bean fields&amp;nbsp;" style="text;html=1;strokeColor=none;fillColor=none;align=left;verticalAlign=middle;whiteSpace=wrap;rounded=0;fontSize=16;" vertex="1" parent="1">
          <mxGeometry x="560" y="56" width="260" height="110" as="geometry" />
        </mxCell>
      </root>
    </mxGraphModel>
  </diagram>
</mxfile>
